<svg xmlns="http://www.w3.org/2000/svg" xmlns:xlink="http://www.w3.org/1999/xlink" width="30" height="30" viewBox="0 0 30 30">
  <defs>
    <style>
      .cls-1 {
        fill: #06f;
      }

      .cls-2 {
        fill: url(#linear-gradient);
      }

      .cls-3 {
        opacity: 0.25;
        mix-blend-mode: screen;
        isolation: isolate;
        fill: url(#linear-gradient-2);
      }
    </style>
    <linearGradient id="linear-gradient" x1="0.898" y1="-0.107" x2="0.176" y2="0.758" gradientUnits="objectBoundingBox">
      <stop offset="0" stop-color="#06f"/>
      <stop offset="1" stop-color="#7baaf0"/>
    </linearGradient>
    <linearGradient id="linear-gradient-2" x1="-0.364" y1="1.431" x2="0.746" y2="0.235" gradientUnits="objectBoundingBox">
      <stop offset="0" stop-color="#00a482"/>
      <stop offset="1" stop-color="#79dd83"/>
    </linearGradient>
  </defs>
  <g id="组_3716" data-name="组 3716" transform="translate(-329 -303.28)">
    <g id="组_3715" data-name="组 3715" transform="translate(329 303.28)">
      <path id="路径_5806" data-name="路径 5806" class="cls-1" d="M349.948,312.332v-.76c-1.673,1.243-1.762,2.437-2.206,3.074-.787,1.128-1.489.982-1.62.573-.2-.634.071-2.3-.515-2.3-2.312,0-4.155.1-5.635,2.948s-2.529,1.683-2.529,1.683,1.9-4.648,3.326-6.219c1.074-1.183,3.68-1.575,5.833-2.073A13.821,13.821,0,0,0,349.948,308V303.28h-11.9v9.052H329v11.9h9.052v1.465c1.8-1.277,1.884-2.517,2.34-3.17.787-1.128,1.489-.982,1.62-.573.2.633-.071,2.3.515,2.3,2.312,0,4.155-.1,5.636-2.947s2.528-1.683,2.528-1.683-1.9,4.648-3.326,6.218c-1.074,1.183-3.68,1.575-5.833,2.073a13.87,13.87,0,0,0-3.48,1.33v4.04h11.9v-9.052H359v-11.9ZM344,321.281c-1.842-.616-3.023-2.2-2.782-3.536a1.362,1.362,0,0,1,1.745-1.129,1.088,1.088,0,0,0,2.074,0,1.362,1.362,0,0,1,1.745,1.129C347.023,319.079,345.842,320.664,344,321.281Z" transform="translate(-329 -303.28)"/>
      <path id="路径_5807" data-name="路径 5807" class="cls-2" d="M356.613,312.332h.047V303.28h11.9V308a13.821,13.821,0,0,1-3.346,1.257c-2.153.5-4.759.89-5.833,2.073a13.571,13.571,0,0,0-1.648,2.6Q357.141,313.155,356.613,312.332Zm3.7,4.541a1.277,1.277,0,0,1,1.255-.257,1.088,1.088,0,0,0,2.074,0,1.362,1.362,0,0,1,1.745,1.129,2.876,2.876,0,0,1-1.028,2.5c.442.313.89.619,1.346.913q.416.268.846.536c.073-.125.145-.253.217-.39,1.48-2.843,2.529-1.683,2.529-1.683s-.575,1.4-1.328,2.93c1.03.6,2.1,1.176,3.2,1.68h6.434v-11.9h-9.052v-.76c-1.673,1.243-1.762,2.437-2.206,3.074-.787,1.128-1.489.982-1.62.573-.2-.634.071-2.3-.515-2.3-2.161,0-3.911.093-5.339,2.424Q359.567,316.135,360.317,316.873Z" transform="translate(-347.609 -303.28)"/>
      <path id="路径_5808" data-name="路径 5808" class="cls-3" d="M370.243,314.423a6.049,6.049,0,0,1,2.075-2.852v.76h9.052v8.752a29.191,29.191,0,0,1-8.408-4.361A32.865,32.865,0,0,1,370.243,314.423Zm-4.252-4.478c.966-.261,2.017-.463,2.981-.686A13.821,13.821,0,0,0,372.318,308V303.28H362.193A16.16,16.16,0,0,0,365.991,309.945Z" transform="translate(-351.369 -303.28)"/>
    </g>
  </g>
</svg>
