<svg xmlns="http://www.w3.org/2000/svg" width="17" height="16" viewBox="0 0 17 16">
  <defs>
    <style>
      .cls-1 {
        fill: #fff;
      }

      .cls-2 {
        fill: #fff;
      }
    </style>
  </defs>
  <g id="组_3196" data-name="组 3196" transform="translate(-81.92 -92.16)">
    <path id="路径_1140" data-name="路径 1140" class="cls-1" d="M95.3,98.342a2.7,2.7,0,0,0,.728-1.816c0-1.671-1.634-3.031-3.642-3.031h-.843V92.16H90.282v1.627a.978.978,0,0,0,1.022.924h1.08a1.883,1.883,0,1,1,0,3.63H85.248v1.216H95.278a1.883,1.883,0,1,1,0,3.63H87.136V104.4H89.2c2.314,0,2.491,1.293,2.5,1.458v2.3h1.258v-2.334a2.441,2.441,0,0,0-.582-1.422h2.9c2.008,0,3.641-1.36,3.641-3.031S97.3,98.351,95.3,98.342Zm-6.166,7.168H87.65a1.883,1.883,0,1,1,0-3.63h7.942v-1.217H85.562a1.883,1.883,0,1,1,0-3.63h7.262V95.817c-2.7,0-3.626-.719-3.938-1.147a.864.864,0,0,1-.164-.513v-2H87.463v2a2.046,2.046,0,0,0,.394,1.213,2.759,2.759,0,0,0,.411.446H85.562c-2.008,0-3.642,1.36-3.642,3.032a3.229,3.229,0,0,0,2.879,2.964,2.719,2.719,0,0,0-.791,1.883c0,1.671,1.634,3.031,3.642,3.031H89v1.433h1.259v-1.645A1.07,1.07,0,0,0,89.132,105.51Z" transform="translate(0)"/>
    <path id="路径_1141" data-name="路径 1141" class="cls-2" d="M186.953,108.16H186.2v-1.554a1.3,1.3,0,0,0-1.322-1.28h-1.928a1.565,1.565,0,1,1,0-3.128h7.906a.893.893,0,1,0,0-1.785h-9.807a1.565,1.565,0,1,1,0-3.128H188a.812.812,0,1,0,0-1.623h-.759a2.894,2.894,0,0,1-2.175-.687,1.3,1.3,0,0,1-.368-.932V92.16h.754l0,1.93a.6.6,0,0,0,.188.408,2.187,2.187,0,0,0,1.6.433H188a1.541,1.541,0,1,1,0,3.082h-6.956a.835.835,0,1,0,0,1.669h9.807a1.624,1.624,0,1,1,0,3.245h-7.906a.835.835,0,1,0,0,1.669h1.928a2.046,2.046,0,0,1,2.076,2.01Z" transform="translate(-95.576)"/>
  </g>
</svg>
