<svg xmlns="http://www.w3.org/2000/svg" xmlns:xlink="http://www.w3.org/1999/xlink" width="1186" height="1150" viewBox="0 0 1186 1150">
  <defs>
    <style>
      .cls-1 {
        fill: #4979fa;
      }

      .cls-2 {
        clip-path: url(#clip-path);
      }

      .cls-3 {
        fill: #2955d5;
      }

      .cls-4 {
        fill: #3565ec;
      }

      .cls-5 {
        fill: #3565ea;
      }
    </style>
    <clipPath id="clip-path">
      <rect id="矩形_710" data-name="矩形 710" class="cls-1" width="1186" height="1150" transform="translate(-1123.859 2334)"/>
    </clipPath>
  </defs>
  <g id="蒙版组_5" data-name="蒙版组 5" class="cls-2" transform="translate(1123.859 -2334)">
    <g id="组_3733" data-name="组 3733" transform="translate(-1180.243 1938.425)">
      <rect id="矩形_709" data-name="矩形 709" class="cls-1" width="1242.28" height="732.234" transform="translate(0 392.223)"/>
      <path id="路径_5824" data-name="路径 5824" class="cls-3" d="M68.712,426.2,775.323-178.586,896.176-60.361,268.5,465.548Z" transform="translate(239.018 1079.953)"/>
      <path id="路径_5821" data-name="路径 5821" class="cls-3" d="M451.349-66.128,491.874-102.4,664.7,5.448l-213.35,185.62Z" transform="translate(-451.349 598.536)"/>
      <path id="路径_5822" data-name="路径 5822" class="cls-4" d="M351.52,57.158,537.152-102.4H808.437L351.52,287.121Z" transform="translate(-351.272 728.938)"/>
      <path id="路径_5823" data-name="路径 5823" class="cls-5" d="M68.712,426.2,775.323-178.586,936.705-81.568,268.5,465.548Z" transform="translate(-22.622 700.465)"/>
      <circle id="椭圆_115" data-name="椭圆 115" class="cls-4" cx="133.5" cy="133.5" r="133.5" transform="translate(2.4 392.223)"/>
      <path id="路径_6096" data-name="路径 6096" class="cls-4" d="M90,0A90,90,0,1,1,0,90,90,90,0,0,1,90,0Z" transform="translate(982.094 881.227)"/>
      <circle id="椭圆_117" data-name="椭圆 117" class="cls-4" cx="462" cy="462" r="462" transform="translate(701.383 -0.425)"/>
      <circle id="椭圆_116" data-name="椭圆 116" class="cls-3" cx="340" cy="340" r="340" transform="translate(823.383 121.575)"/>
      <rect id="矩形_707" data-name="矩形 707" class="cls-5" width="1239.88" height="351.119" transform="translate(2.4 1124.456)"/>
      <path id="路径_5817" data-name="路径 5817" class="cls-3" d="M179.558,38.352V159.127H39.964Z" transform="translate(277.804 349.225)"/>
      <path id="路径_5818" data-name="路径 5818" class="cls-4" d="M179.558,38.352V159.127H39.964Z" transform="translate(417.398 350.253)"/>
      <path id="路径_5819" data-name="路径 5819" class="cls-3" d="M179.558,38.352V159.127H39.964Z" transform="translate(417.398 467.41)"/>
      <path id="路径_5820" data-name="路径 5820" class="cls-4" d="M179.558,38.352V159.127H39.964Z" transform="translate(277.804 467.41)"/>
      <rect id="矩形_708" data-name="矩形 708" class="cls-3" width="101.749" height="84.048" transform="translate(1140.531 1040.408)"/>
    </g>
  </g>
</svg>
