<svg xmlns="http://www.w3.org/2000/svg" width="46" height="46" viewBox="0 0 46 46">
  <defs>
    <style>
      .cls-1 {
        fill: rgba(0,102,255,0.64);
        opacity: 0.999;
      }

      .cls-2 {
        fill: #fff;
      }
    </style>
  </defs>
  <g id="组_4502" data-name="组 4502" transform="translate(-300 -450)">
    <rect id="矩形_735" data-name="矩形 735" class="cls-1" width="46" height="46" rx="23" transform="translate(300 450)"/>
    <path id="路径_6076" data-name="路径 6076" class="cls-2" d="M79.123,68.843a1,1,0,0,0-.812-.131L66.4,73.348a.756.756,0,0,0-.444.628V88.252h-.917a.944.944,0,0,0,0,1.887H82.554a.469.469,0,0,0,.47-.47V72.352a1.062,1.062,0,0,0-.365-.76ZM76.584,82.832a.62.62,0,0,1-.444.576l-6.7,1.624A.347.347,0,0,1,69,84.667v-.681a.617.617,0,0,1,.444-.576l6.7-1.627a.346.346,0,0,1,.444.365Zm0-3.223a.623.623,0,0,1-.444.576l-6.7,1.624A.348.348,0,0,1,69,81.441v-.681a.62.62,0,0,1,.444-.576l6.7-1.624a.346.346,0,0,1,.444.365Zm0-3.249a.62.62,0,0,1-.444.576l-6.7,1.624A.348.348,0,0,1,69,78.192v-.681a.62.62,0,0,1,.444-.576l6.7-1.6a.346.346,0,0,1,.444.365ZM89.332,88.3a.728.728,0,0,0-.237.026.39.39,0,0,0-.184-.026h-1.7a.465.465,0,0,1-.47-.444V67.481a1,1,0,0,0-.368-.733l-3.585-2.621A.993.993,0,0,0,81.975,64l-10.939,2.96a.682.682,0,0,0-.444.6V69.7a.943.943,0,0,0,1.885,0v-.944a.661.661,0,0,1,.444-.5l8.715-2.253a.993.993,0,0,1,.812.131l2.069,1.493a1,1,0,0,1,.368.733v21.3a.449.449,0,0,0,.47.447H88.94a.333.333,0,0,0,.158-.026.728.728,0,0,0,.237.026.905.905,0,1,0,0-1.809Z" transform="translate(245.812 395.951)"/>
  </g>
</svg>
