<svg xmlns="http://www.w3.org/2000/svg" width="15" height="16" viewBox="0 0 15 16">
  <defs>
    <style>
      .cls-1 {
        fill: #909399;
      }
    </style>
  </defs>
  <path id="路径_6098" data-name="路径 6098" class="cls-1" d="M125.056,102.461v-.215h2.86V96.551a4.8,4.8,0,0,0-9.551,0v5.695h2.861v.212h0s-5.589,2.519-5.574,3.713,0,2.053,0,2.053h14.988s.027-.72,0-2.029S125.056,102.461,125.056,102.461Zm.145,3.578c-1.365,1.338-2.07-.7-2.07-.7s-.705,2.036-2.071.7c0,0-.6-.394-.664-3.031l2.736,2.332,2.736-2.332C125.8,105.644,125.2,106.039,125.2,106.039Z" transform="translate(-115.648 -92.224)"/>
</svg>
