<svg xmlns="http://www.w3.org/2000/svg" width="14" height="14" viewBox="0 0 14 14">
  <defs>
    <style>
      .cls-1 {
        fill: #909399;
      }
    </style>
  </defs>
  <path id="路径_1246" data-name="路径 1246" class="cls-1" d="M11.335,10.472c-2.614-.231-2.769-1.407-2.769-1.407V7.889c1.527-.589,1.993-2.84,1.993-2.84,0-.9-.44-.92-.44-.92V2.67C10.221.239,8.747.8,8.721.8s-.827-.64-.827-.64C7.323-.273,6.054.316,6.054.316H6A1.88,1.88,0,0,0,4.192,1.39l.026,2.686c-.749,0-.647,1.049-.647,1.049,0,1.151,2.019,2.737,2.019,2.737a2.876,2.876,0,0,1-.672,2.276,13.2,13.2,0,0,0-2.924.512l-.109.034A3.11,3.11,0,0,0,0,12.595v1.382L6.339,14l.936-.026H14V12.9C14.026,11.317,11.335,10.472,11.335,10.472ZM7.989,12.239,7.015,14l-.952-1.76-.22-.876L6.262,9.5H7.789l.4,1.865-.2.876Z" transform="translate(0 -0.002)"/>
</svg>
