<svg xmlns="http://www.w3.org/2000/svg" width="12" height="12" viewBox="0 0 12 12">
  <defs>
    <style>
      .cls-1 {
        fill: #fff;
      }
    </style>
  </defs>
  <path id="archive" class="cls-1" d="M139.693,138.513l-.927,1.12A.968.968,0,0,1,138,140h-8a.991.991,0,0,1-.773-.367l-.92-1.12a1.305,1.305,0,0,1-.307-.847v-8.333A1.337,1.337,0,0,1,129.333,128h9.333A1.337,1.337,0,0,1,140,129.333v8.333A1.305,1.305,0,0,1,139.693,138.513ZM134,130.333,130.333,134h2.333v1.333h2.667V134h2.333Zm-4.587,8.333.54.667h8l.627-.667Z" transform="translate(-128 -128)"/>
</svg>
