<svg xmlns="http://www.w3.org/2000/svg" width="21" height="22" viewBox="0 0 21 22">
  <defs>
    <style>
      .cls-1 {
        fill: #bbc8db;
      }
    </style>
  </defs>
  <path id="路径_6030" data-name="路径 6030" class="cls-1" d="M62.235,32.667H44.1a1.393,1.393,0,0,1-1.432-1.4V19.56h21v11.7a1.393,1.393,0,0,1-1.432,1.4ZM47.917,21.9h-.955a1.4,1.4,0,1,0,0,2.809h.955a1.4,1.4,0,1,0,0-2.809Zm0,4.681h-.955a1.4,1.4,0,1,0,0,2.809h.955a1.4,1.4,0,1,0,0-2.809ZM53.644,21.9h-.955a1.4,1.4,0,1,0,0,2.809h.955a1.4,1.4,0,1,0,0-2.809Zm0,4.681h-.955a1.4,1.4,0,1,0,0,2.809h.955a1.4,1.4,0,1,0,0-2.809ZM59.371,21.9h-.955a1.4,1.4,0,1,0,0,2.809h.955a1.4,1.4,0,1,0,0-2.809Zm0,4.681h-.955a1.4,1.4,0,1,0,0,2.809h.955a1.4,1.4,0,1,0,0-2.809Zm-16.7-12.17a1.393,1.393,0,0,1,1.432-1.4h2.864v2.809a1.432,1.432,0,0,0,2.864,0V13.007h6.682v2.809a1.432,1.432,0,0,0,2.864,0V13.007h2.864a1.393,1.393,0,0,1,1.432,1.4v4.213h-21Zm15.273,1.872a.447.447,0,0,1-.477-.468V11.135a.477.477,0,0,1,.955,0v4.681A.447.447,0,0,1,57.939,16.284Zm-9.545,0a.447.447,0,0,1-.477-.468V11.135a.477.477,0,0,1,.955,0v4.681A.447.447,0,0,1,48.394,16.284Z" transform="translate(-42.667 -10.667)"/>
</svg>
