<svg xmlns="http://www.w3.org/2000/svg" width="46" height="46" viewBox="0 0 46 46">
  <defs>
    <style>
      .cls-1 {
        fill: rgba(0,102,255,0.64);
        opacity: 0.999;
      }

      .cls-2 {
        fill: #fff;
      }
    </style>
  </defs>
  <g id="组_4502" data-name="组 4502" transform="translate(-300 -450)">
    <rect id="矩形_735" data-name="矩形 735" class="cls-1" width="46" height="46" rx="23" transform="translate(300 450)"/>
    <path id="路径_6075" data-name="路径 6075" class="cls-2" d="M10.753,26.247c.039-.364.064-.684.107-1,.074-.547.163-1.09.244-1.636.039-.274.064-.549.1-.823l.168-1.264c.033-.244.065-.491.092-.736.037-.367.064-.736.1-1.1.021-.2.062-.391.082-.588a3.012,3.012,0,0,0-.233-1.145,3.287,3.287,0,0,1-.105-.4.193.193,0,0,1,.123-.14C12.218,17.4,13,17.4,13.79,17.4c.113,0,.155.027.113.153-.089.266-.157.535-.232.8a3.058,3.058,0,0,0-.085.324,3.01,3.01,0,0,0,.068,1.116,6.885,6.885,0,0,1,.1.8c.036.39.056.781.1,1.169.073.568.163,1.133.242,1.7.037.253.068.506.092.759.039.382.067.766.1,1.147.022.234.053.466.091.7.006.045.065.08.138.162.11-.421.2-.784.3-1.144s.217-.733.322-1.1c.073-.256.134-.516.2-.774.079-.28.162-.558.238-.839.071-.256.131-.515.2-.771.074-.275.156-.549.233-.824.068-.253.135-.512.207-.766.079-.289.163-.574.242-.864.07-.263.129-.53.2-.791s.16-.547.238-.82c.07-.25.131-.5.2-.751.03-.115.033-.268.107-.33a.454.454,0,0,1,.368-.086c.475.17.936.376,1.406.559s.975.364,1.46.549c.386.147.773.3,1.156.449a6.386,6.386,0,0,1,1.4.745,2.453,2.453,0,0,1,.869,1.071,2.311,2.311,0,0,1,.1.629c.039.388.059.779.1,1.169.049.458.11.915.163,1.373l.006.062c.034.464.067.924.1,1.385.025.32.051.64.094.955a1.042,1.042,0,0,1-1.03,1.037c-2.989-.027-5.977-.019-8.969-.019q-6.3,0-12.6.013a1.008,1.008,0,0,1-.9-.378,1.437,1.437,0,0,1-.183-1.193.552.552,0,0,0,.033-.122c.037-.455.062-.91.107-1.364.04-.387.1-.772.155-1.157l.007-.064a12.182,12.182,0,0,1,.113-1.361,2.789,2.789,0,0,1,.308-1.3,3.942,3.942,0,0,1,1.059-.983,10.912,10.912,0,0,1,2.033-.879c.545-.208,1.082-.437,1.625-.655.456-.181.917-.361,1.379-.53a.348.348,0,0,1,.458.286c.065.283.162.561.238.843.07.256.129.515.2.772.076.281.163.559.241.842.067.248.129.5.2.75.108.4.223.788.331,1.186.07.248.131.5.2.747.08.29.166.576.245.864.07.257.128.516.2.773.077.281.162.559.238.84.071.257.135.515.2.773.092.357.181.715.281,1.071.01.045.079.07.15.129ZM7.029,8.567c.083-.454.18-1.016.293-1.577a5.266,5.266,0,0,1,.8-1.833A5.574,5.574,0,0,1,10.259,3.2a4.108,4.108,0,0,1,1.278-.446,7.6,7.6,0,0,1,1.01-.138,5.144,5.144,0,0,1,1.052.125,5.283,5.283,0,0,1,.954.281,5.339,5.339,0,0,1,2.147,1.6,6.455,6.455,0,0,1,1.006,1.7,6.675,6.675,0,0,1,.29,1.108,5.042,5.042,0,0,1,.146,1.026A10.969,10.969,0,0,1,18,9.877c-.037.277-.117.546-.181.818a6.207,6.207,0,0,1-.6,1.468,6.54,6.54,0,0,1-1.7,2.06,4.763,4.763,0,0,1-1.548.851,4.163,4.163,0,0,1-1.551.242,4.715,4.715,0,0,1-2.365-.809,5.535,5.535,0,0,1-1.59-1.575,12.063,12.063,0,0,1-.78-1.371,8.8,8.8,0,0,1-.438-1.272,4.049,4.049,0,0,1-.1-.669C7.112,9.308,7.078,9,7.029,8.567Z" transform="translate(310.424 458.512)"/>
  </g>
</svg>
