<svg xmlns="http://www.w3.org/2000/svg" width="13" height="18" viewBox="0 0 13 18">
  <defs>
    <style>
      .cls-1 {
        fill: #00959e;
      }
    </style>
  </defs>
  <path id="路径_1137" data-name="路径 1137" class="cls-1" d="M181.01,20.46l-.1,0-.1,0-.1.005-.1.006-.1.008-.1.009-.094.01-.093.011-.092.012-.091.013-.09.014-.09.015-.088.017-.088.017-.086.018-.086.02-.085.021-.084.022-.083.022-.077.022-.081.024-.08.025-.079.026-.078.027-.078.029-.078.031-.076.03-.075.031-.074.032-.073.032-.072.034-.072.034-.067.035-.069.036-.068.036-.067.037-.067.039-.066.039-.065.04-.064.04-.063.041-.065.045-.061.043-.06.043-.06.044-.059.045-.058.045-.057.046-.056.047-.056.047-.055.05-.054.05-.053.05-.051.05-.051.05-.051.05-.051.05-.051.05-.1.1-.047.049-.046.054-.045.054-.045.054-.044.055-.043.055-.042.056-.041.055-.041.056-.04.057-.039.057-.038.057-.037.058-.037.058-.036.058-.035.059-.034.059-.033.059-.032.06-.031.06-.031.06-.03.06-.029.06-.029.06-.028.059-.027.061-.026.061-.024.061L175.6,24l-.025.061-.024.061-.023.061-.022.061-.022.059-.021.062-.02.061-.019.063-.019.063-.018.061-.017.062-.017.061-.016.061-.014.06-.014.061-.014.061-.013.061-.015.059-.012.061-.011.061-.011.06-.011.062-.01.06-.009.06-.008.06-.007.06-.007.059-.006.059,0,.06-.005.059,0,.058,0,.058,0,.059,0,.058v.38l0,.069,0,.068,0,.068,0,.067.006.067.006.066.007.065.007.064.008.064.008.063.009.063.01.062.01.062.01.061.011.061.012.06.012.059.013.059.014.058.013.058.029.114.015.056.016.056.016.055.016.055.017.054.018.054.018.054.018.053.018.053.039.1.019.05.02.05.02.05.042.1.021.05.021.05.022.05.022.05.023.05.022.05L175.8,29l.023.047.024.047.024.046.024.045.024.045.025.045.051.089.051.087.051.087.051.085.051.084.026.043.028.043.029.044.03.044.031.044.032.045.033.045.034.046.036.045.037.046.038.046.039.046.041.046.041.046.042.046.044.047.044.046.046.046.046.046.048.046.051.045.051.045.051.045.051.045.051.044.053.044.053.038.055.043.056.042.057.042.058.041.059.041.06.04.061.04.061.038.062.038.064.037.064.036.064.035.066.034.067.033.068.033.068.031.069.03.07.029.071.028.072.027.072.025.073.024.074.023.075.021.076.021.077.019.077.017.039.008.039.008.039.007.04.007.039.006.04.006.08.011.04,0,.041,0,.081.008.041,0,.041,0,.041,0h.281l.073-.005.072-.009.071-.012.07-.015.068-.019.067-.022.065-.025.064-.028.062-.031.06-.033.058-.036.056-.039.055-.041.051-.044.051-.047.048-.05.045-.05.043-.053.041-.055.037-.056.035-.059.032-.06.028-.062.026-.063.022-.065.02-.066.016-.068.013-.069.009-.07.006-.071V30.4l-.006-.071-.009-.07-.013-.069-.016-.067-.02-.067L181.257,30l-.026-.063-.028-.062-.032-.06-.035-.058L181.1,29.7l-.041-.055-.043-.053-.045-.05-.048-.05-.051-.046-.051-.043-.055-.041-.056-.039-.058-.036-.06-.033-.062-.031-.064-.028-.065-.025-.067-.022-.068-.019-.07-.015-.071-.012-.072-.009-.073-.005h-.194l-.056,0-.054.005-.051.007-.051.008-.048.009-.046.01-.045.011-.043.012-.041.013-.04.013-.038.014-.073.029-.069.031-.1.047-.062.03-.061.028-.06.026-.061.023-.062.018-.048.011-.055.008-.058,0h-.057l-.056,0-.056-.007-.054-.011-.051-.014-.051-.017-.051-.02-.051-.023-.048-.025-.061-.038-.059-.041-.055-.044-.051-.05-.051-.05-.045-.05L177.731,29l-.038-.053-.045-.065-.043-.057-.042-.067-.041-.067-.04-.068-.038-.069-.037-.069-.035-.07-.033-.071-.033-.071-.031-.071-.029-.072-.028-.072-.027-.073-.025-.074-.024-.074-.023-.075-.021-.075-.02-.076-.019-.076-.017-.076-.016-.076-.014-.077L177,27.239l-.011-.077-.01-.078-.008-.078-.007-.078-.006-.079,0-.079v-.375l.007-.107,0-.053.005-.053.006-.053.007-.053.007-.052.017-.1.019-.1.01-.05.011-.05.012-.05.013-.05.014-.05.014-.05.014-.05.015-.05.016-.05.016-.05.017-.05.018-.05.018-.05.019-.05.019-.05.02-.05.021-.047.021-.047.022-.047.022-.046.022-.046.023-.046.024-.045.024-.045.025-.045.025-.044.026-.044.026-.044.027-.044.028-.044.028-.043.029-.043.029-.042.029-.042.03-.041.03-.041.031-.041.031-.04.032-.04.032-.04.033-.039.033-.039.034-.038.034-.038.035-.037.035-.037.035-.037.036-.036.037-.036.037-.036.038-.035.038-.034.039-.034.039-.034.04-.033.04-.033.04-.032.041-.032.041-.032.041-.031.042-.03.042-.03.043-.029.043-.029.043-.029.044-.028.044-.028.045-.027.045-.027.045-.026.045-.025.046-.025.046-.025.046-.024.047-.024.047-.023.048-.022.048-.022.048-.021.051-.02.051-.02.051-.02.051-.019.051-.018.051-.018.051-.017.051-.017.051-.016.051-.015.051-.015.051-.014.051-.013.051-.013.051-.013.051-.012.051-.011.051-.01.053-.01.053-.009.053-.009.054-.008.054-.007.054-.007.054-.006.055-.006.055-.005.111-.008.056,0h.4l.085,0,.084,0,.083.006.083.006.082.008.081.009.08.01.079.011.078.012.077.013.077.015.076.016.075.017.074.018.073.019.072.02.072.021.071.022.07.023.069.024.068.025.068.026.067.027.066.028.065.029.064.03.063.031.063.031.062.033.061.033.06.034.06.035.059.036.058.032.057.037.056.038.056.039.055.04.054.04.053.041.051.042.051.043.051.043.051.044.051.044.051.045.051.046.048.046.047.047.046.05.046.05.045.05.045.05.044.05.043.05.042.05.041.05.041.05.04.052.039.053.041.055.038.054.037.054.037.055.036.055.035.055.034.056.034.056.033.056.032.057.032.057.031.057.031.058.059.116.029.059.028.059.027.059.027.059.026.059.025.059.025.06.024.06.023.06.023.06.023.06.022.06.021.061.021.06.02.061.019.061.019.061.036.121.017.061.032.121.029.121.014.061.014.061.013.06.024.12.011.06.011.06.01.06.019.119.009.059.008.059.007.059.007.059.006.059.006.058.006.058.005.058,0,.057,0,.057,0,.057,0,.056v.692l0,.059,0,.059,0,.059,0,.058,0,.058,0,.058-.005.057-.005.057-.012.113-.006.056-.006.056-.007.055-.007.055-.01.059-.008.055-.017.109-.018.108-.009.054-.02.106-.021.105-.011.052-.011.05-.012.05-.012.05-.013.05-.013.05-.013.05-.013.05-.014.05-.014.05-.028.1-.029.1-.029.106-.031.1-.033.095-.033.093-.035.093-.036.091-.037.091-.038.089-.039.089-.04.087-.04.086-.041.085-.043.084-.043.083-.044.082-.045.081-.046.08-.047.078-.047.078-.05.075-.051.076-.046.074-.051.074-.051.075-.051.071-.051.07-.051.069-.054.068-.054.067-.055.066-.055.064-.056.063-.062.06-.057.061-.057.06-.056.06-.058.058-.059.056-.061.053-.06.054-.06.053-.041.034-.039.03-.038.027-.036.024-.051.03-.048.023-.044.016-.041.009-.047,0-.04-.007-.038-.023-.027-.046-.006-.065.013-.066.022-.06.024-.05.03-.05.037-.055.06-.08.046-.062.045-.063.044-.064.044-.064.044-.065.043-.065L184.05,33l.042-.067.041-.067.041-.067.04-.069.039-.069.039-.07.038-.071.038-.071.037-.071.036-.073.035-.073.035-.074.034-.074.033-.075.032-.076.032-.076.032-.077.033-.077.03-.078.029-.079.028-.08.028-.081.027-.081.026-.082.025-.083.025-.083.024-.085.023-.085.023-.086.021-.087.021-.088.021-.089.019-.089.019-.09.018-.091.018-.092.016-.093.016-.093.015-.095.014-.1.013-.1.013-.1.012-.1.011-.1.01-.1.009-.1.009-.1.007-.1.007-.1.006-.1,0-.105,0-.107,0-.107v-.486l0-.081,0-.083-.006-.085-.008-.086-.009-.088-.01-.089-.012-.091-.013-.092-.015-.093-.017-.094-.018-.1-.02-.1-.021-.1-.023-.1-.025-.1-.027-.1-.028-.1-.03-.1-.032-.1-.017-.05-.017-.05-.018-.05-.018-.05-.019-.05-.019-.05-.02-.05-.02-.05-.021-.05-.021-.05-.022-.05-.022-.05-.023-.05-.023-.05-.024-.05-.025-.05-.025-.05-.026-.047-.026-.047-.027-.047-.028-.046-.028-.046-.028-.045-.029-.045-.03-.045-.03-.044-.031-.044-.031-.044-.032-.044-.032-.044-.033-.043-.034-.042-.034-.042-.036-.041-.036-.041-.037-.041-.038-.04-.038-.04-.039-.039-.039-.039-.04-.038-.041-.037-.041-.037-.042-.037-.043-.036-.043-.035-.044-.035-.045-.034-.045-.033-.046-.033L183.4,24l-.048-.032-.048-.03-.051-.03-.051-.029-.051-.028-.051-.028-.051-.027L183,23.767l-.053-.025-.054-.024-.054-.024-.056-.023-.056-.022-.054.01-.057-.02-.058-.02L182.5,23.6l-.06-.017-.063-.019-.061-.016-.062-.015-.063-.014-.064-.013-.065-.012L182,23.482l-.066-.01-.066-.008-.068-.008-.068-.007-.069-.006-.07,0-.072,0-.072,0h-.315l-.042,0-.042,0-.041,0-.042,0-.041,0-.041.005-.041,0-.041.006-.041.006-.041.006-.04.007-.041.007-.04.008-.04.009-.04.009-.04.009-.04.01-.039.01-.039.011-.039.011-.039.012-.038.012-.038.012-.038.013-.075.028-.075.029-.073.031-.072.033-.072.034-.07.036-.069.037-.068.039-.067.04-.066.042-.065.044-.064.045-.065.052-.061.05-.06.05-.059.05-.058.05-.056.053-.055.055-.054.056-.051.057-.051.059-.051.059-.048.059-.046.063-.045.063-.044.064-.042.065-.041.067-.039.067-.038.068-.035.069-.035.072-.032.071-.03.072-.028.073-.027.074-.025.074-.023.075-.023.075-.019.076-.017.077-.014.079-.014.078-.011.079-.009.08-.008.08-.005.079,0,.08v.208l0,.063.005.063.006.062.008.062.009.062.01.062.034-.093.037-.092.041-.09.044-.088.023-.044.024-.043.025-.043.025-.042.026-.042.027-.042.028-.041.029-.04.029-.04.03-.04.031-.039.031-.038.032-.038.033-.037.033-.036.035-.036.036-.035.036-.034.037-.034.038-.033.039-.032.04-.032.041-.031.041-.03.042-.03.043-.029.044-.028.045-.027.045-.027.046-.026.047-.025.048-.024.051-.023.051-.022.051-.021.051-.02.051-.02.051-.019.053-.018.054-.017.055-.016.056-.015.057-.014.058-.013.058-.012.059-.011.06-.01.061-.009.062-.008.062-.006.064-.006.064,0,.065,0,.066,0h.135l.051,0,.041.01.041.022.029.046-.01.053-.039.043-.037.023-.065.028-.07.029-.068.031-.067.032-.065.033-.064.034-.062.035-.06.036-.059.037-.057.038-.056.039-.054.039-.051.04-.051.041-.051.042-.048.043-.047.043-.045.044-.044.044-.042.045-.041.046-.04.046-.039.047-.037.047-.035.05-.051.072-.032.05-.031.05-.029.05-.028.05-.027.05-.026.05-.025.05-.024.05-.022.05-.021.05-.02.05-.019.05-.018.05-.017.05-.016.05-.028.1-.024.1-.02.1-.016.1-.012.093-.007.081-.005.089v.171l0,.081.008.078.059.016.055-.02.055-.018.056-.017.056-.016.056-.014.057-.013.058-.012.058-.01.058-.009.059-.008.059-.006.059-.005.059,0h.239l.059,0,.059,0,.058.006.058.007.057.009.057.01.057.012.056.013.056.014.056.015.055.017.055.018.054.02.054.021.053.022.051.023.051.025.051.026.051.027.051.029.051.029.051.031.051.032.047.033.047.034.046.036.045.036.044.038.044.039.043.04.041.041.04.042.04.043.038.044.037.044.036.045.034.046.032.046.032.047.03.05.029.05.028.05.026.05.025.05.024.05.023.05.021.05.02.052.018.053.018.053.016.054.014.054.014.055.012.055.011.055.009.056.008.056.007.056,0,.057,0,.057,0,.057v.115l0,.058,0,.057,0,.057-.007.056-.008.056-.009.056-.011.055-.012.055-.014.055-.014.054-.016.054-.018.053-.018.053-.02.052-.021.05-.023.05-.024.05-.025.05-.026.05-.028.05-.029.05-.03.05-.032.05-.032.047-.034.045-.036.045-.037.044-.038.044-.04.043-.04.042-.041.041-.043.04-.044.039-.044.038-.045.037-.046.036-.047.034-.048.033-.048.032-.051.03-.051.03-.051.028-.051.027-.051.026-.051.024-.051.023-.051.022-.054.021-.054.019-.055.018-.055.016-.056.016-.056.014-.056.013-.057.011-.057.01-.057.009-.058.008-.058.006-.059,0-.059,0-.059,0h-.2l-.064,0-.064,0-.063,0-.062,0-.061.005-.061.007-.06.008-.06.008-.059.009-.058.01-.057.01-.056.012-.056.013-.055.013-.055.014-.054.015-.051.016-.051.017-.051.017-.051.018-.051.019-.051.019-.051.02-.048.02-.047.021-.047.022-.046.023-.045.023-.045.024-.044.024-.043.025-.042.026-.041.026-.041.027-.04.028-.039.028-.039.029-.038.029-.037.03-.036.03-.035.031-.034.031-.033.032-.032.032-.032.033-.031.033-.058.07-.056.07-.053.071-.051.073-.047.074-.044.078-.04.077-.037.078-.024.066-.027.067-.024.067-.024.068-.027.069-.02.069-.019.07-.012.07-.016.071-.013.071-.012.071-.011.072-.009.072-.007.072-.005.073-.006.074V35.6l0,.073.006.073.007.073.01.072.011.072.013.072.015.071.017.071.019.071.021.071.022.07.025.069.026.069.029.068.03.067.032.064.034.066.038.065.039.064.041.063.044.063.045.061.047.06.051.059.051.058.054.057.056.056.058.054.061.053.063.05.065.05.067.05.07.047.036.023.036.022.075.044.038.021.039.021.04.02.04.02.041.02.041.019.042.018.042.018.086.035.089.033.045.016.046.015.047.015.047.014.048.013.051.013.051.013.051.012.07.016.072.014.072.013.073.011.075.009.076.008.076.006.077,0h.4l.041,0,.041,0,.042,0,.042,0,.042,0,.042,0,.042,0,.042-.005.043-.005.043-.006.043-.006.043-.006.044-.007.043-.008.044-.008.044-.008.044-.009.044-.009.045-.009.045-.01.045-.01.045-.01.045-.011.045-.011.045-.012.045-.012.045-.013.045-.013.046-.013.046-.013.046-.014.046-.014.046-.015.046-.015.046-.015.046-.016.046-.016.047-.016.092-.034.047-.018.047-.018.093-.038.093-.039.094-.04.094-.042.094-.043.094-.045.094-.046.095-.05.094-.05.094-.05.094-.052.094-.053.093-.054.094-.056.094-.058.094-.059.094-.06.093-.062.088-.064.093-.064.092-.066.092-.067.092-.069.091-.07.091-.071.046-.036.045-.036.045-.037.045-.037.045-.037.045-.037.045-.038.045-.038.045-.039.045-.039.044-.039.045-.04.044-.04.044-.04.044-.04.044-.041.044-.041.043-.041.043-.042.043-.042.043-.042.043-.043.043-.043.042-.043.042-.044.042-.044.042-.044.041-.045.041-.045.041-.045.041-.046.041-.045.041-.046.04-.046.041-.047.04-.047.04-.047.04-.05.039-.05.039-.05.039-.05.039-.05.038-.05.038-.05.038-.05.038-.05.037-.05.036-.05.037-.05.036-.05.037-.05.036-.05.036-.05.035-.052.035-.052.035-.053.034-.053.034-.053.034-.054.033-.054.033-.054.033-.055.033-.055.032-.055.032-.055.032-.056.031-.056.031-.056.031-.057.03-.056.03-.057.029-.057.029-.057.029-.058.029-.058.028-.059.028-.059.027-.059.028-.059.027-.059.026-.059.026-.06.026-.06.025-.06.025-.061.025-.061.024-.061.024-.062.023-.062.023-.062.022-.062.023-.063.043-.126.021-.063.021-.064.02-.063.02-.063.02-.064.038-.129.018-.065.035-.131.017-.066.017-.066.016-.066.016-.067.015-.067.015-.067.014-.067.014-.067.014-.068.013-.068.012-.068.012-.068.011-.069.011-.069.01-.069.01-.07.009-.07.009-.07.008-.07.008-.07.008-.071.007-.071.006-.071.006-.071.006-.071,0-.072,0-.072,0-.072,0-.072V29l0-.146V28.49l0-.109,0-.109,0-.108-.005-.108-.006-.107-.007-.107-.008-.106-.009-.105-.01-.105-.011-.1-.012-.1-.013-.1-.012-.1-.015-.1-.016-.1-.016-.1-.018-.1-.018-.1-.019-.1-.02-.1-.021-.1-.022-.1-.023-.1-.023-.1-.025-.1-.025-.1-.026-.1-.027-.095-.028-.094-.029-.093-.03-.092-.03-.092-.032-.091-.033-.091-.033-.09-.034-.089-.035-.089-.036-.088-.037-.087-.037-.088-.038-.084-.04-.085-.04-.085-.041-.084-.044-.085-.043-.082-.044-.082-.044-.081-.045-.08-.045-.08-.047-.078-.048-.078-.051-.077-.051-.076-.051-.076-.051-.075-.051-.074-.051-.073-.053-.073-.054-.071-.055-.071-.056-.07-.056-.069-.057-.068-.057-.066-.059-.067-.06-.065-.06-.065-.061-.063-.062-.063-.063-.062-.064-.061-.064-.06-.065-.059L185.507,22l-.067-.057-.067-.056-.068-.055-.07-.056-.069-.05-.07-.052-.071-.05-.072-.05-.073-.05-.073-.05-.074-.047-.075-.046-.076-.045-.076-.044-.077-.043-.078-.042-.078-.041-.08-.04-.08-.038-.041-.019-.04-.018-.04-.021-.041-.018-.041-.018-.041-.017-.041-.017-.041-.017-.042-.017-.041-.017-.042-.016-.042-.016-.042-.015-.043-.015-.042-.015-.043-.014-.043-.014-.043-.014-.043-.013-.044-.013-.044-.013-.044-.013-.044-.013-.044-.013-.045-.012-.044-.012-.045-.011-.045-.011-.045-.011-.045-.01-.045-.01-.045-.01-.045-.01-.046-.009-.046-.009-.046-.009-.046-.008-.046-.008-.047-.008-.047-.008-.047-.007-.094-.014-.047-.006-.048-.006-.095-.011L182,20.5l-.048,0-.051,0-.051,0-.051,0-.051,0-.088,0-.051,0H181.1Zm2.738-.248" transform="translate(-175.155 -20.211)"/>
</svg>
