<svg id="组_3171" data-name="组 3171" xmlns="http://www.w3.org/2000/svg" width="16" height="16" viewBox="0 0 16 16">
  <defs>
    <style>
      .cls-1 {
        fill: #06f;
      }

      .cls-2 {
        fill: #fff;
      }
    </style>
  </defs>
  <path id="路径_1123" data-name="路径 1123" class="cls-1" d="M42.755,242.417H39.9a2.815,2.815,0,0,1-2.506-3.038v-8.624a2.162,2.162,0,0,1,1.928-2.337h.216c2.734.005,4.948,2.692,4.95,6.006v5.889A1.946,1.946,0,0,1,42.755,242.417Zm-9.677,0H30.225a1.946,1.946,0,0,1-1.735-2.1v-5.889c0-3.314,2.22-6,4.954-6h.216a2.162,2.162,0,0,1,1.928,2.337v8.619a3.393,3.393,0,0,1-.735,2.15A2.306,2.306,0,0,1,33.078,242.417Z" transform="translate(-28.49 -226.417)"/>
  <path id="联合_11" data-name="联合 11" class="cls-2" d="M9.7,8.351a.568.568,0,0,1-.587-.474L8.938,6.439,6.088,5.3,3.241,6.372q0,.012,0,.024L3,7.9a.579.579,0,0,1-.587.453H2.325a.547.547,0,0,1-.5-.606l.144-.893-1.144.43A.636.636,0,0,1,.6,7.324.583.583,0,0,1,.012,6.9a.525.525,0,0,1,.35-.6L5.491,4.367V.535a.6.6,0,0,1,1.19,0V4.37L11.524,6.3a.524.524,0,0,1,.34.6.584.584,0,0,1-.582.424.648.648,0,0,1-.242-.046L10.2,6.942l.1.827a.552.552,0,0,1-.528.589Z" transform="translate(1.929)"/>
</svg>
