<svg xmlns="http://www.w3.org/2000/svg" width="42" height="42" viewBox="0 0 42 42">
  <defs>
    <style>
      .cls-1 {
        fill: #dfefef;
      }

      .cls-2 {
        fill: rgba(0,149,158,0.3);
      }

      .cls-3 {
        fill: #00959e;
      }
    </style>
  </defs>
  <g id="组_3100" data-name="组 3100" transform="translate(-804 -144)">
    <circle id="椭圆_48" data-name="椭圆 48" class="cls-1" cx="21" cy="21" r="21" transform="translate(804 144)"/>
    <g id="组_2935" data-name="组 2935" transform="translate(816 154)">
      <g id="组_11" data-name="组 11">
        <path id="路径_12" data-name="路径 12" class="cls-2" d="M253.739,144.01h-9.918a2.564,2.564,0,0,0-2.581,2.546v15.73a2.564,2.564,0,0,0,2.581,2.546h12.661a2.564,2.564,0,0,0,2.581-2.546V149.395Z" transform="translate(-240.651 -143.421)"/>
        <path id="路径_13" data-name="路径 13" class="cls-3" d="M267.14,433.127h-7.8a.589.589,0,0,1,0-1.177h7.8a.589.589,0,0,1,0,1.177Zm4.321,5.057H259.339a.589.589,0,0,1,0-1.177h12.123a.589.589,0,0,1,0,1.177Z" transform="translate(-255.9 -423.344)"/>
        <path id="路径_14" data-name="路径 14" class="cls-3" d="M177.081,146.01H164.4a3.143,3.143,0,0,1-3.159-3.119V127.129a3.143,3.143,0,0,1,3.159-3.119h9.934a.58.58,0,0,1,.411.171l5.332,5.4a.564.564,0,0,1,.163.4v12.919A3.143,3.143,0,0,1,177.081,146.01ZM164.4,125.144a2,2,0,0,0-2.01,1.985v15.763a2,2,0,0,0,2.01,1.985h12.681a2,2,0,0,0,2.011-1.985V130.2l-5-5.06Z" transform="translate(-161.24 -124.01)"/>
        <path id="路径_15" data-name="路径 15" class="cls-3" d="M603.152,130.651h-2.815a3.241,3.241,0,0,1-3.237-3.237V124.6a.589.589,0,0,1,1.005-.416l5.463,5.464a.589.589,0,0,1-.416,1Zm-4.875-4.631v1.394a2.062,2.062,0,0,0,2.06,2.06h1.394Z" transform="translate(-584.741 -124.01)"/>
      </g>
    </g>
  </g>
</svg>
