<svg xmlns="http://www.w3.org/2000/svg" width="14" height="17" viewBox="0 0 14 17">
  <defs>
    <style>
      .cls-1 {
        fill: #00959e;
      }
    </style>
  </defs>
  <path id="路径_1277" data-name="路径 1277" class="cls-1" d="M174.739,87.815a8.791,8.791,0,0,0-6.613-.231l-.013,0c-3.013,1.115-3.057,4.59-3,5.629a.645.645,0,0,1-.041.262c-.218.583-.765,2.026-1.15,2.83a.727.727,0,0,0,.01.649.744.744,0,0,0,.527.388c1.083.2,1.146.76,1.145.9l0,3.2.6.015c.051,0,1.251.031,2.443,0h0a2.714,2.714,0,0,1,.052,1.6.853.853,0,0,0,.2.69.876.876,0,0,0,.662.3h5.691a.876.876,0,0,0,.651-.287.853.853,0,0,0,.216-.672q-.225-1.913-.4-3.831a3.749,3.749,0,0,1,.841-3.038c.19-.277.406-.589.617-.958l.031-.063a8.941,8.941,0,0,0,.546-1.723A5.091,5.091,0,0,0,174.739,87.815Zm-.633,9.059a3.242,3.242,0,0,1-1.956,1.379,9.733,9.733,0,0,1,.447,4.237.564.564,0,0,1-.24.4.578.578,0,0,1-.458.088l-.078-.017a.564.564,0,0,1-.443-.611,8.526,8.526,0,0,0-.529-4.078,2.227,2.227,0,0,0-2.724-.976,3.174,3.174,0,0,0-.762.36.6.6,0,0,1-.759-.064l-.041-.041a.571.571,0,0,1,.083-.874,4.286,4.286,0,0,1,1.07-.52,3.566,3.566,0,0,1,3.866.988,2.129,2.129,0,0,0,1.5-.919.614.614,0,0,1,1.08.107A.6.6,0,0,1,174.106,96.873Z" transform="translate(-163.852 -87.049)"/>
</svg>
