<svg xmlns="http://www.w3.org/2000/svg" width="42" height="42" viewBox="0 0 42 42">
  <defs>
    <style>
      .cls-1 {
        fill: #dfefef;
      }

      .cls-2 {
        fill: rgba(0,149,158,0.3);
        stroke: #00959e;
      }

      .cls-3 {
        fill: #00959e;
      }
    </style>
  </defs>
  <g id="组_4290" data-name="组 4290" transform="translate(-992 -121)">
    <circle id="椭圆_50" data-name="椭圆 50" class="cls-1" cx="21" cy="21" r="21" transform="translate(992 121)"/>
    <g id="组_2934" data-name="组 2934" transform="translate(858.949 65.8)">
      <path id="路径_629" data-name="路径 629" class="cls-2" d="M144.55,84.637V66.763a2.093,2.093,0,0,1,2.11-2.063H160.44a2.093,2.093,0,0,1,2.11,2.063V84.637a2.093,2.093,0,0,1-2.11,2.063H146.66A2.093,2.093,0,0,1,144.55,84.637Z" transform="translate(0)"/>
      <path id="路径_630" data-name="路径 630" class="cls-3" d="M298.657,281.557h-9.851a.908.908,0,0,1,0-1.817h9.851a.908.908,0,0,1,0,1.817Zm-3.582,3.633h-6.269a.908.908,0,0,1,0-1.816h6.269a.908.908,0,0,1,0,1.816Zm-3.582,3.633h-2.687a.908.908,0,0,1,0-1.817h2.687a.908.908,0,0,1,0,1.817Zm7.433,1.287a.584.584,0,0,0,.139-.585.561.561,0,0,0-.446-.39l-1.4-.211a.142.142,0,0,1-.106-.08l-.624-1.314a.543.543,0,0,0-.991,0l-.623,1.315a.142.142,0,0,1-.105.08l-1.4.211a.562.562,0,0,0-.445.389.588.588,0,0,0,.139.586l1.012,1.024a.15.15,0,0,1,.04.13l-.238,1.447a.582.582,0,0,0,.219.559.538.538,0,0,0,.583.044l1.25-.685a.131.131,0,0,1,.128,0l1.251.682a.538.538,0,0,0,.582-.044.581.581,0,0,0,.219-.558l-.239-1.446a.151.151,0,0,1,.04-.13Zm-1.949.879.16.967a.1.1,0,0,1-.038.1.089.089,0,0,1-.1.007l-.832-.455h0l0,0a.355.355,0,0,0-.343,0l-.835.456a.09.09,0,0,1-.1-.007.1.1,0,0,1-.038-.1l.16-.965a.393.393,0,0,0-.107-.336l-.674-.683a.1.1,0,0,1-.024-.1.1.1,0,0,1,.075-.066l.934-.141a.371.371,0,0,0,.278-.209l.417-.879h0a.091.091,0,0,1,.115-.047.089.089,0,0,1,.05.048l.417.879a.368.368,0,0,0,.278.208l.934.141a.1.1,0,0,1,.075.066.1.1,0,0,1-.024.1l-.674.684A.392.392,0,0,0,296.977,290.989Z" transform="translate(-139.727 -210.015)"/>
    </g>
  </g>
</svg>
