<svg xmlns="http://www.w3.org/2000/svg" width="16" height="17" viewBox="0 0 16 17">
  <defs>
    <style>
      .cls-1 {
        fill: #06f;
      }
    </style>
  </defs>
  <path id="路径_1138" data-name="路径 1138" class="cls-1" d="M14.424,59.55A6.927,6.927,0,0,1,9.291,62.5a3.932,3.932,0,0,1-1.322-.224,4.884,4.884,0,0,1-2.757-2.091c-.578-.986-.861-2.358-1.5-2.39H3.684a.758.758,0,0,0-.484.189,1.226,1.226,0,0,0-.367.864,11.072,11.072,0,0,0-.008,1.285c.008.142.017.25.034.405.064.577.141.65.1.842a1.025,1.025,0,0,1-.5.6,1.329,1.329,0,0,1-.727.3H1.71c-.552-.019-.935-.693-1.072-.934-.855-1.5-.459-5.443,1.5-6.572a3.219,3.219,0,0,1,1.6-.385,3.772,3.772,0,0,1,2.658.982,1.524,1.524,0,0,0,1,.6h.03a.987.987,0,0,0,.722-.3c.6-.659.133-2.233,0-2.689a15.063,15.063,0,0,0-1-2.091A8.734,8.734,0,0,1,6.4,47a2.231,2.231,0,0,1,.342-.928,1.257,1.257,0,0,1,.491-.474,1.276,1.276,0,0,1,.513-.1,1.066,1.066,0,0,1,.944.452L8.718,46a3.592,3.592,0,0,1,.167.618c.036.17.073.345.125.527a.285.285,0,0,0,.194.211.231.231,0,0,0,.07.011.263.263,0,0,0,.2-.1,2.842,2.842,0,0,1,2.211-.988,4.314,4.314,0,0,1,1.011.129c1.4.338,2.44,2.489,2.726,3.17A10.632,10.632,0,0,1,14.424,59.55Z" transform="translate(-0.212 -45.5)"/>
</svg>
