<svg xmlns="http://www.w3.org/2000/svg" width="30" height="30" viewBox="0 0 30 30">
  <defs>
    <style>
      .cls-1 {
        fill: #eff1f7;
      }

      .cls-2 {
        fill: #98d34c;
        stroke: #98d34c;
        stroke-width: 0.4px;
      }

      .cls-3 {
        fill: #06f;
      }

      .cls-4 {
        fill: #fff;
      }
    </style>
  </defs>
  <g id="组_4607" data-name="组 4607" transform="translate(-1532 -535)">
    <circle id="椭圆_62" data-name="椭圆 62" class="cls-1" cx="15" cy="15" r="15" transform="translate(1532 535)"/>
    <g id="组_4606" data-name="组 4606" transform="translate(1435.603 400.538)">
      <path id="路径_6098" data-name="路径 6098" class="cls-2" d="M649.988,537.146a3.258,3.258,0,1,0-.588.551l2.019,2.019a.4.4,0,0,0,.275.11.48.48,0,0,0,.292-.11.386.386,0,0,0,0-.568Zm-4.9-2.075a2.422,2.422,0,1,1,2.421,2.421A2.443,2.443,0,0,1,645.09,535.071Zm0,0" transform="translate(-529.79 -381.363)"/>
      <path id="路径_6100" data-name="路径 6100" class="cls-3" d="M219.212,235.837a5.365,5.365,0,0,0-1.147-1.788,5.037,5.037,0,0,0-3.624-1.549,5.191,5.191,0,0,0-3.495,1.425,5.037,5.037,0,0,0-7.223.208,5.627,5.627,0,0,0-1.527,3.883v.332a5.155,5.155,0,0,0,.335,1.721v.065l.028.073a15.868,15.868,0,0,0,4.195,5.246,33.81,33.81,0,0,0,3,2.4,1.923,1.923,0,0,0,2.263,0c.107-.073,1.141-.8,2.426-1.909a3.829,3.829,0,0,1,4.572-5.4v-.008a3.66,3.66,0,0,0,.261-.633,3.976,3.976,0,0,0,.3-1.555v-.326A5.436,5.436,0,0,0,219.212,235.837Zm-10.757,1.782H207.26v1.195a.478.478,0,1,1-.956,0V237.62h-1.195a.478.478,0,1,1,0-.956H206.3v-1.195a.478.478,0,0,1,.956,0v1.195h1.195a.478.478,0,1,1,0,.956Z" transform="translate(-100.117 -90.381)"/>
      <path id="路径_6101" data-name="路径 6101" class="cls-4" d="M703.141,279.241a.249.249,0,0,1,.27-.143c.382.056.6.051.858.335a1.059,1.059,0,0,1,.382.818c0,.337-.3.312-.382.121s-.172-.7-.678-.8C703.147,279.5,703.1,279.354,703.141,279.241Z" transform="translate(-586.965 -135.666)"/>
    </g>
  </g>
</svg>
