<svg xmlns="http://www.w3.org/2000/svg" width="16" height="16" viewBox="0 0 16 16">
  <defs>
    <style>
      .cls-1 {
        fill: #00959e;
      }
    </style>
  </defs>
  <path id="减去_2" data-name="减去 2" class="cls-1" d="M10.366,16a1.423,1.423,0,0,1-.6-.128,1.365,1.365,0,0,1-.446-.331,1.451,1.451,0,0,1-.373-.953,9.361,9.361,0,0,0-.118-1.694C8.683,12.145,8.4,11.765,8,11.765s-.683.38-.828,1.129a9.361,9.361,0,0,0-.118,1.694,1.45,1.45,0,0,1-.373.953,1.366,1.366,0,0,1-.446.331,1.423,1.423,0,0,1-.6.128,2.31,2.31,0,0,1-1.667-.992l-.037-.043-.047-.094a18.178,18.178,0,0,1-1.665-2.309A16.484,16.484,0,0,1,1,10.13,14.532,14.532,0,0,1,.254,7.644,12.476,12.476,0,0,1,0,5.177V4.471A4.363,4.363,0,0,1,.356,2.74,4.56,4.56,0,0,1,2.756.354,4.433,4.433,0,0,1,4.5,0,4.443,4.443,0,0,1,6.816.518l.095.047.114.057A2.213,2.213,0,0,0,8,.941,2.112,2.112,0,0,0,9.041.612L9.183.518A4.579,4.579,0,0,1,11.55,0,4.423,4.423,0,0,1,13.3.36a4.486,4.486,0,0,1,1.432.977,4.4,4.4,0,0,1,.941,1.416A4.257,4.257,0,0,1,16,4.471v.706a12.383,12.383,0,0,1-.254,2.461A14.408,14.408,0,0,1,15,10.112a16.731,16.731,0,0,1-1.217,2.43,19.082,19.082,0,0,1-1.665,2.329l-.047.094a3.066,3.066,0,0,1-.621.641A1.791,1.791,0,0,1,10.366,16Zm.521-14.023a.447.447,0,0,0-.473.471.447.447,0,0,0,.473.47,2.315,2.315,0,0,1,2.319,2.306v.47a.473.473,0,0,0,.947,0v-.47A3.2,3.2,0,0,0,13.9,3.962a3.271,3.271,0,0,0-3.009-1.985Z"/>
</svg>
