<svg xmlns="http://www.w3.org/2000/svg" width="32" height="32" viewBox="0 0 32 32">
  <defs>
    <style>
      .cls-1 {
        fill: #c0c4cc;
      }
    </style>
  </defs>
  <path id="account-circle" class="cls-1" d="M101.333,85.333a16,16,0,1,0,16,16A16.006,16.006,0,0,0,101.333,85.333Zm0,4.8a4.8,4.8,0,1,1-4.8,4.8A4.794,4.794,0,0,1,101.333,90.133Zm0,22.72a11.52,11.52,0,0,1-9.6-5.152c.048-3.184,6.4-4.928,9.6-4.928,3.184,0,9.552,1.744,9.6,4.928a11.52,11.52,0,0,1-9.6,5.152Z" transform="translate(-85.333 -85.333)"/>
</svg>
