<svg xmlns="http://www.w3.org/2000/svg" width="46" height="46" viewBox="0 0 46 46">
  <defs>
    <style>
      .cls-1 {
        fill: rgba(152,211,76,0.6);
        opacity: 0.999;
      }

      .cls-2 {
        fill: #fff;
      }
    </style>
  </defs>
  <g id="组_4502" data-name="组 4502" transform="translate(-300 -450)">
    <rect id="矩形_735" data-name="矩形 735" class="cls-1" width="46" height="46" rx="23" transform="translate(300 450)"/>
    <g id="组_4515" data-name="组 4515" transform="translate(243.571 324.147)">
      <path id="路径_6078" data-name="路径 6078" class="cls-2" d="M278.2,146.308a5.212,5.212,0,1,0-4.919-5.206A5.069,5.069,0,0,0,278.2,146.308Zm2.633.836-2.633,3.712-2.636-3.712a8.459,8.459,0,0,0-5.262,7.995v5.06h.016c.147.944,3.613,1.7,7.882,1.7s7.735-.757,7.882-1.7h.016v-5.06A8.466,8.466,0,0,0,280.832,147.144Z" transform="translate(-199.195)"/>
      <path id="路径_6079" data-name="路径 6079" class="cls-2" d="M79.456,256.8a1.393,1.393,0,0,0,.314-.951c-.257-.024-.514-.038-.778-.038s-.508.014-.758.038a1.476,1.476,0,0,0,.3.957S79.148,256.825,79.456,256.8Zm-.474,2.648.878-1.054-.418-1.443h-.919l-.451,1.443Zm8.892-2.669a3.893,3.893,0,1,0-3.775-3.892A3.835,3.835,0,0,0,87.873,256.783Zm-15.793.62-2.024,2.776L68.035,257.4A6.333,6.333,0,0,0,64,263.382v3.778h.01c.117.7,2.776,1.267,6.049,1.267h.08v-4.16a9.388,9.388,0,0,1,2.622-6.554A5.332,5.332,0,0,0,72.08,257.4Zm-2.014-.62a3.893,3.893,0,1,0-3.775-3.892A3.835,3.835,0,0,0,70.066,256.783Z" transform="translate(0 -109.11)"/>
      <path id="路径_6080" data-name="路径 6080" class="cls-2" d="M246.442,482.765l-2.084,2.783-2.084-2.776a6.907,6.907,0,0,0-.709.31,9.244,9.244,0,0,1,2.7,6.554v4.157h.083c3.375,0,6.123-.565,6.237-1.267h.014v-3.781A6.342,6.342,0,0,0,246.442,482.765Z" transform="translate(-156.602 -334.475)"/>
    </g>
  </g>
</svg>
