<svg xmlns="http://www.w3.org/2000/svg" width="15.121" height="17.642" viewBox="0 0 15.121 17.642">
  <defs>
    <style>
      .cls-1 {
        fill: rgba(0,102,255,0.52);
      }

      .cls-2 {
        fill: #06f;
      }
    </style>
  </defs>
  <g id="组_11" data-name="组 11" transform="translate(0 0)">
    <path id="路径_12" data-name="路径 12" class="cls-1" d="M251.206,144.01H243.3a2.052,2.052,0,0,0-2.058,2.046V158.7a2.052,2.052,0,0,0,2.058,2.046h10.1a2.052,2.052,0,0,0,2.058-2.046V148.337Z" transform="translate(-240.785 -143.555)"/>
    <path id="路径_13" data-name="路径 13" class="cls-2" d="M265.515,432.86h-6.287a.455.455,0,1,1,0-.91h6.287a.455.455,0,1,1,0,.91ZM269,436.768h-9.768a.455.455,0,1,1,0-.91H269a.455.455,0,1,1,0,.91Z" transform="translate(-256.552 -424.95)"/>
    <path id="路径_14" data-name="路径 14" class="cls-2" d="M173.847,141.652H163.754a2.511,2.511,0,0,1-2.514-2.5v-12.64a2.511,2.511,0,0,1,2.514-2.5h7.906a.46.46,0,0,1,.327.137l4.244,4.327a.454.454,0,0,1,.13.318v10.359A2.51,2.51,0,0,1,173.847,141.652Zm-10.092-16.732a1.6,1.6,0,0,0-1.6,1.591v12.64a1.6,1.6,0,0,0,1.6,1.591h10.092a1.6,1.6,0,0,0,1.6-1.591V128.977l-3.979-4.057Z" transform="translate(-161.24 -124.01)"/>
    <path id="路径_15" data-name="路径 15" class="cls-2" d="M601.778,129.143H599.6a2.505,2.505,0,0,1-2.5-2.5v-2.176a.455.455,0,0,1,.777-.322l4.223,4.223a.455.455,0,0,1-.322.777Zm-3.768-3.58v1.077a1.594,1.594,0,0,0,1.592,1.592h1.078Z" transform="translate(-587.112 -124.011)"/>
  </g>
</svg>
