<svg xmlns="http://www.w3.org/2000/svg" width="15" height="18" viewBox="0 0 15 18">
  <defs>
    <style>
      .cls-1 {
        fill: #06f;
      }
    </style>
  </defs>
  <path id="路径_1117" data-name="路径 1117" class="cls-1" d="M173.727,90.286a.656.656,0,0,0-.252-.48.677.677,0,0,0-.532-.133,10.539,10.539,0,0,0-2.679.861.645.645,0,0,0-.175.128,6.863,6.863,0,0,0-3.154-1.473c-.153-.027-.305-.045-.457-.056a8.785,8.785,0,0,0,.255-1.371.648.648,0,0,0-.16-.5.669.669,0,0,0-.485-.224h-.025a.66.66,0,0,0-.672.583,6.951,6.951,0,0,1-.287,1.4c0,.008,0,.015-.006.023-.008-.009-.014-.02-.023-.029a11.731,11.731,0,0,0-2.371-1.845.667.667,0,0,0-.539-.058.654.654,0,0,0-.4.361l-.011.025a.656.656,0,0,0,.273.831,10.358,10.358,0,0,1,1.894,1.44,4.173,4.173,0,0,0-.525.4,4.5,4.5,0,0,0-1.026,1.368,6.539,6.539,0,0,0-2.231-2.467.667.667,0,0,0-.561-.072.654.654,0,0,0-.411.384l-.009.024a.654.654,0,0,0,.257.794,5.262,5.262,0,0,1,1.986,2.443,2.115,2.115,0,0,0-.371-.046c-1.02-.032-2.16.865-2.3,3.5v.016a10.635,10.635,0,0,0,2.694,7.526,4.553,4.553,0,0,0,3.2,1.4q.1,0,.2,0c3.647-.175,5.881-4.676,7.113-8.42a5.131,5.131,0,0,0-.476-4.374,5.847,5.847,0,0,0-.406-.586,9.322,9.322,0,0,1,2.12-.655.667.667,0,0,0,.553-.695ZM163.32,95.832a.675.675,0,0,1-1.35-.018,9.363,9.363,0,0,0-.1-1.5.671.671,0,0,1,.517-.748h0a.684.684,0,0,1,.535.1.663.663,0,0,1,.284.458A10.687,10.687,0,0,1,163.32,95.832Zm1.869-5.5.007-.006a.672.672,0,0,1,.99.146,7.082,7.082,0,0,1,.4.687.658.658,0,0,1,.017.554.674.674,0,0,1-.414.375l-.008,0a.668.668,0,0,1-.8-.329,5.632,5.632,0,0,0-.32-.55A.665.665,0,0,1,165.189,90.33Zm3.434,2.547a6.83,6.83,0,0,0-1.309,1.4.676.676,0,0,0-.119.474l.008.059c.292,2.247.526,4.058-1.185,6.23a.678.678,0,0,1-.987.088l0,0a.668.668,0,0,1-.07-.914c1.362-1.716,1.193-3.018.906-5.23q-.035-.268-.07-.549h0a.664.664,0,0,1,.09-.425h0a8.213,8.213,0,0,1,1.9-2.178.674.674,0,0,1,.976.151l0,0a.665.665,0,0,1-.137.893Z" transform="translate(-158.729 -87.035)"/>
</svg>
