<svg xmlns="http://www.w3.org/2000/svg" width="13" height="16" viewBox="0 0 13 16">
  <defs>
    <style>
      .cls-1 {
        fill: #06f;
      }
    </style>
  </defs>
  <path id="路径_1128" data-name="路径 1128" class="cls-1" d="M173.961,87.77a8.062,8.062,0,0,0-6.14-.217l-.012,0c-2.8,1.049-2.839,4.32-2.785,5.3a.614.614,0,0,1-.039.247c-.2.549-.71,1.907-1.068,2.663a.692.692,0,0,0,.5.976c1.006.19,1.064.715,1.063.845l0,3.012.555.014c.047,0,1.162.029,2.268,0h0a2.587,2.587,0,0,1,.048,1.507.809.809,0,0,0,.8.931h5.284a.809.809,0,0,0,.805-.9q-.209-1.8-.373-3.606a3.561,3.561,0,0,1,.781-2.859c.177-.26.377-.555.573-.9l.029-.059a8.5,8.5,0,0,0,.507-1.621A4.806,4.806,0,0,0,173.961,87.77Zm-.588,8.526a3.012,3.012,0,0,1-1.817,1.3,9.279,9.279,0,0,1,.415,3.987.532.532,0,0,1-.648.454l-.072-.016a.53.53,0,0,1-.412-.576,8.126,8.126,0,0,0-.491-3.839,2.056,2.056,0,0,0-2.529-.918,2.93,2.93,0,0,0-.707.339.549.549,0,0,1-.7-.061l-.038-.039a.542.542,0,0,1,.077-.823,3.959,3.959,0,0,1,.993-.489,3.282,3.282,0,0,1,3.59.93,1.975,1.975,0,0,0,1.391-.865.567.567,0,0,1,.953.616Z" transform="translate(-163.852 -87.049)"/>
</svg>
