<svg width="13" height="26" viewBox="0 0 13 26" fill="none" xmlns="http://www.w3.org/2000/svg">
<path d="M6.5353 6.44427C7.22531 6.43343 7.89647 6.23527 8.46449 5.87466C9.03251 5.51406 9.47209 5.00709 9.72803 4.41741C9.98396 3.82772 10.0449 3.18161 9.90304 2.5602C9.76123 1.93879 9.42305 1.36978 8.93095 0.92461C8.43886 0.479441 7.81478 0.177955 7.13709 0.0580134C6.4594 -0.0619284 5.75828 0.00501796 5.12181 0.250445C4.48533 0.495872 3.94184 0.908843 3.55959 1.4375C3.17734 1.96616 2.97335 2.58694 2.97325 3.2219C2.98255 4.08342 3.36274 4.90641 4.03045 5.51045C4.69816 6.11448 5.59892 6.45029 6.5353 6.44427V6.44427ZM12.9056 17.6106L11.4566 13.8881L9.46418 8.72154C9.43444 8.65577 9.38418 8.59958 9.31976 8.56007C9.25534 8.52055 9.17965 8.49948 9.10222 8.49951H4.00044C3.92301 8.49948 3.84732 8.52055 3.7829 8.56007C3.71848 8.59958 3.66823 8.65577 3.63848 8.72154L2.25037 12.277L0.167179 17.6106C0.0391017 17.8432 -0.0171485 18.1037 0.00454493 18.3638C0.0262383 18.6238 0.125053 18.8734 0.290222 19.0853C0.455391 19.2973 0.68057 19.4635 0.94128 19.5658C1.20199 19.6682 1.48823 19.7028 1.76882 19.6658H3.67051V25.9995H9.37662V19.6658H11.2484C11.5272 19.6808 11.806 19.6359 12.0627 19.5346C12.3194 19.4333 12.5469 19.2785 12.7273 19.0822C12.8917 18.8716 12.9944 18.6256 13.0256 18.3679C13.0569 18.1101 13.0155 17.8494 12.9056 17.6106V17.6106Z" fill="#98D34C"/>
</svg>
