<svg xmlns="http://www.w3.org/2000/svg" width="14.241" height="37.522" viewBox="0 0 14.241 37.522">
  <defs>
    <style>
      .cls-1 {
        fill: #06f;
      }
    </style>
  </defs>
  <path id="路径_2089" data-name="路径 2089" class="cls-1" d="M336.848,41.024a4.64,4.64,0,1,0-4.64-4.64A4.644,4.644,0,0,0,336.848,41.024Zm3.8,2.96h-7.6a3.312,3.312,0,0,0-3.32,3.32v9.52a3.326,3.326,0,0,0,2.96,3.28l.36.04v8.12h0v1h7.6v-9.16l.36-.04a3.326,3.326,0,0,0,2.96-3.28v-9.52A3.3,3.3,0,0,0,340.648,43.985Z" transform="translate(-329.728 -31.744)"/>
</svg>
