<svg xmlns="http://www.w3.org/2000/svg" width="17.225" height="37.442" viewBox="0 0 17.225 37.442">
  <defs>
    <style>
      .cls-1 {
        fill: #98d34c;
      }
    </style>
  </defs>
  <path id="路径_2090" data-name="路径 2090" class="cls-1" d="M299.935,42.048a4.641,4.641,0,1,0-4.72-4.64A4.687,4.687,0,0,0,299.935,42.048Zm8.44,16.081-1.92-5.36-2.64-7.44a.52.52,0,0,0-.48-.32h-6.76a.52.52,0,0,0-.48.32l-1.84,5.12-2.76,7.68a2.053,2.053,0,0,0,2.12,2.96h2.52v9.12h7.56v-9.12h2.48a2.383,2.383,0,0,0,1.96-.84A2.178,2.178,0,0,0,308.376,58.129Z" transform="translate(-291.314 -32.768)"/>
</svg>
